<svg xmlns="http://www.w3.org/2000/svg" width="32.508" height="32.508" viewBox="0 0 32.508 32.508">
  <g id="Group_56" data-name="Group 56" transform="translate(-5276.313 -5105.313)">
    <circle id="Ellipse_19" data-name="Ellipse 19" cx="15.754" cy="15.754" r="15.754" transform="translate(5276.813 5105.813)" fill="none" stroke="#000" stroke-miterlimit="10" stroke-width="1"/>
    <circle id="Ellipse_20" data-name="Ellipse 20" cx="3.732" cy="3.732" r="3.732" transform="translate(5280.939 5113.206)" fill="none" stroke="#000" stroke-miterlimit="10" stroke-width="1"/>
    <path id="Path_82" data-name="Path 82" d="M968.931,306.687a1.437,1.437,0,1,1-1.437-1.436A1.438,1.438,0,0,1,968.931,306.687Z" transform="translate(4323.127 4804.537)" fill="none" stroke="#000" stroke-miterlimit="10" stroke-width="1"/>
    <path id="Path_83" data-name="Path 83" d="M980.351,308.124a1.436,1.436,0,1,1-1.436-1.437A1.436,1.436,0,0,1,980.351,308.124Z" transform="translate(4323.127 4804.537)" fill="none" stroke="#000" stroke-miterlimit="10" stroke-width="1"/>
    <path id="Path_84" data-name="Path 84" d="M963.723,326.37a1.437,1.437,0,1,1-1.436-1.437A1.436,1.436,0,0,1,963.723,326.37Z" transform="translate(4323.127 4804.537)" fill="none" stroke="#000" stroke-miterlimit="10" stroke-width="1"/>
    <path id="Path_85" data-name="Path 85" d="M976.052,310.98a2.857,2.857,0,1,1-2.856-2.856A2.857,2.857,0,0,1,976.052,310.98Z" transform="translate(4323.127 4804.537)" fill="none" stroke="#000" stroke-miterlimit="10" stroke-width="1"/>
    <path id="Path_86" data-name="Path 86" d="M983.891,323.37a5.658,5.658,0,0,0-7.9,8A15.8,15.8,0,0,0,983.891,323.37Z" transform="translate(4323.127 4804.537)" fill="none" stroke="#000" stroke-miterlimit="10" stroke-width="1"/>
  </g>
</svg>
